<?xml version="1.0" encoding="UTF-8"?>
<svg id="Layer_2" data-name="Layer 2" xmlns="http://www.w3.org/2000/svg" viewBox="0 0 691.53 338.89">
  <defs></defs>
  <g id="Layer_1-2" data-name="Layer 1">
    <g>
      <g>
        <g>
          <path class="cls-2" d="M91.14,57.02c-3.87-17.41-8.25-24.7-25.52-28.37,17.27-4.21,22.14-12.06,25.63-28.65,2.93,16.34,8.29,24.68,25.77,28.69-17.03,3.49-22.11,11.17-25.87,28.33Z"></path>
          <g>
            <path class="cls-1" d="M16.89,118.62c-1.33,41.12,13.8,77,50.8,97.19l-.14-86.36c-.01-8.12-5.93-14.26-12.03-18.4-6.3-3.08-12.64-4.62-19.77-4.67l-35.43-.24c18.77-11.99,40.44-16.2,61.71-12.55,8.5,1.46,15.97,4.67,22.51,10.23v141.69c-35.78-16.25-65.93-45.34-77.49-82.73-4.92-15.04-6.71-30.25-7.06-46.13,5.84-.16,11,.14,16.89,1.96Z"></path>
            <circle class="cls-1" cx="39.26" cy="66.02" r="15.13"></circle>
          </g>
          <g>
            <path class="cls-1" d="M113.81,215.81c37.01-20.08,52.45-56.31,50.98-97.25,5.62-1.32,10.71-1.91,16.71-1.89.17,15.4-2.39,29.96-6.59,44.74-6.04,19.43-16.14,36.62-30.53,51.04s-29.42,24.94-47.49,33.17V103.91c22.27-17.24,60.33-14.16,83.63,1.96l-37.28.58c-14.84.23-29.36,10.55-29.37,23.68l-.06,85.7Z"></path>
            <circle class="cls-1" cx="142.55" cy="66.07" r="15"></circle>
          </g>
        </g>
        <g>
          <g>
            <path class="cls-1" d="M243.65,179.85v-15.58c2.78-3.02,5.37-5.77,7.79-8.24,2.41-2.47,5.13-5.28,8.15-8.42,3.02-3.14,6.13-6.37,9.33-9.69,3.2-3.32,6.31-6.55,9.33-9.69,5.07-5.19,9.69-10.02,13.86-14.49,4.17-4.47,7.52-8.69,10.05-12.68,2.54-3.98,3.8-7.91,3.8-11.77,0-6.28-1.75-11.35-5.25-15.21-3.5-3.86-8.51-5.8-15.03-5.8-4.71,0-8.69,1.09-11.95,3.26-3.26,2.17-5.71,5.04-7.34,8.6-1.63,3.56-2.44,7.52-2.44,11.86h-19.92c.12-8.69,1.96-16.09,5.52-22.19,3.56-6.1,8.48-10.78,14.76-14.04,6.28-3.26,13.52-4.89,21.73-4.89,8.93,0,16.36,1.63,22.28,4.89,5.91,3.26,10.38,7.73,13.4,13.4,3.02,5.68,4.53,12.26,4.53,19.74,0,5.8-1.33,11.2-3.98,16.21-2.66,5.01-6.1,9.81-10.32,14.4-4.23,4.59-8.69,9.24-13.4,13.95-2.9,2.78-5.71,5.56-8.42,8.33-2.72,2.78-5.28,5.41-7.7,7.88-2.42,2.48-4.53,4.68-6.34,6.61-1.81,1.93-3.8,3.98-5.98,6.16h59.59v17.39h-86.04Z"></path>
            <path class="cls-1" d="M380.94,179.85v-109.4h-37.31v-17.39h95.09v17.39h-37.31v109.4h-20.47Z"></path>
            <path class="cls-1" d="M433.65,179.85l46.37-126.79h22.82l46.37,126.79h-21.74l-10.5-30.07h-51.26l-10.69,30.07h-21.37ZM471.69,133.3h39.49l-19.92-56.15-19.56,56.15Z"></path>
            <path class="cls-1" d="M565.51,179.85V53.07h24.27l38.76,83.86,38.04-83.86h24.45v126.79h-20.65v-90.02l-34.05,73.18h-16.12l-34.05-73.18v90.02h-20.65Z"></path>
          </g>
          <g>
            <path class="cls-1" d="M255.83,245.52c-2.28,0-4.34-.42-6.19-1.25-1.85-.83-3.31-2.05-4.38-3.63-1.08-1.59-1.61-3.52-1.61-5.8h4.24c0,2.25.74,4.02,2.21,5.32,1.48,1.3,3.38,1.95,5.73,1.95,2.05,0,3.76-.5,5.13-1.49,1.36-.99,2.05-2.41,2.05-4.24,0-1.25-.22-2.25-.65-3.01-.43-.75-1.08-1.38-1.95-1.88-.87-.5-1.96-.97-3.27-1.42-1.32-.45-2.87-.98-4.67-1.59-1.6-.58-2.98-1.23-4.12-1.97-1.14-.74-2.01-1.64-2.62-2.72-.61-1.07-.91-2.37-.91-3.87-.03-1.99.43-3.67,1.37-5.03.95-1.36,2.23-2.41,3.85-3.13,1.62-.72,3.41-1.08,5.37-1.08s3.78.36,5.37,1.08c1.59.72,2.86,1.78,3.83,3.18.96,1.4,1.46,3.09,1.49,5.08h-4.24c0-1.7-.61-3.1-1.83-4.21-1.22-1.11-2.81-1.66-4.77-1.66-1.73-.06-3.21.37-4.43,1.3-1.22.93-1.83,2.3-1.83,4.09,0,1.19.25,2.13.75,2.82.5.69,1.36,1.29,2.58,1.8,1.22.51,2.9,1.14,5.05,1.88,1.54.51,2.92,1.05,4.14,1.61,1.22.56,2.25,1.22,3.08,1.97.83.76,1.48,1.65,1.93,2.7.45,1.04.67,2.32.67,3.83,0,2.02-.52,3.73-1.56,5.13-1.04,1.4-2.42,2.45-4.14,3.18-1.72.72-3.6,1.08-5.66,1.08Z"></path>
            <path class="cls-1" d="M306.61,244.94v-33.69h20.84v3.32h-16.8v10.93h14.68v3.27h-14.68v12.85h16.8v3.32h-20.84Z"></path>
            <path class="cls-1" d="M367.45,244.94v-33.69h9.96c2.37,0,4.4.35,6.06,1.04,1.67.69,2.95,1.72,3.85,3.1.9,1.38,1.35,3.13,1.35,5.25,0,2.63-.68,4.62-2.05,5.97-1.36,1.35-3.22,2.23-5.56,2.65l9.67,15.69h-5.01l-8.66-14.92h-5.58v14.92h-4.04ZM371.49,226.6h5.82c1.8,0,3.22-.22,4.28-.65,1.06-.43,1.81-1.1,2.26-2s.67-2.01.67-3.32-.22-2.47-.67-3.37c-.45-.9-1.2-1.56-2.26-2-1.06-.43-2.49-.65-4.28-.65h-5.82v11.99Z"></path>
            <path class="cls-1" d="M438.39,244.94l-12.66-33.69h4.38l10.64,29.41,10.73-29.41h4.28l-12.66,33.69h-4.72Z"></path>
            <path class="cls-1" d="M494.08,244.94v-33.69h4.04v33.69h-4.04Z"></path>
            <path class="cls-1" d="M553.72,245.52c-3.4,0-6.31-.76-8.71-2.29-2.41-1.52-4.24-3.6-5.49-6.23s-1.88-5.6-1.88-8.9.62-6.23,1.85-8.86c1.24-2.63,3.06-4.72,5.46-6.26,2.41-1.54,5.33-2.31,8.76-2.31,3.85,0,6.99.92,9.41,2.77,2.42,1.85,3.97,4.42,4.65,7.73h-4.48c-.51-2.09-1.56-3.76-3.15-5.03-1.59-1.27-3.73-1.9-6.43-1.9s-4.88.62-6.64,1.85c-1.76,1.24-3.09,2.9-3.97,4.98-.88,2.09-1.32,4.43-1.32,7.03s.46,5.04,1.37,7.12c.91,2.09,2.25,3.73,4.02,4.93,1.76,1.2,3.95,1.81,6.55,1.81s4.84-.62,6.43-1.85c1.59-1.23,2.64-2.88,3.15-4.93h4.48c-.67,3.24-2.22,5.78-4.65,7.6s-5.56,2.74-9.41,2.74Z"></path>
            <path class="cls-1" d="M607.29,244.94v-33.69h20.84v3.32h-16.8v10.93h14.68v3.27h-14.68v12.85h16.8v3.32h-20.84Z"></path>
            <path class="cls-1" d="M678.86,245.52c-2.28,0-4.34-.42-6.19-1.25-1.85-.83-3.31-2.05-4.38-3.63-1.08-1.59-1.61-3.52-1.61-5.8h4.24c0,2.25.74,4.02,2.21,5.32,1.48,1.3,3.38,1.95,5.73,1.95,2.05,0,3.76-.5,5.13-1.49s2.05-2.41,2.05-4.24c0-1.25-.22-2.25-.65-3.01-.43-.75-1.08-1.38-1.95-1.88-.87-.5-1.96-.97-3.27-1.42-1.32-.45-2.87-.98-4.67-1.59-1.61-.58-2.98-1.23-4.12-1.97-1.14-.74-2.01-1.64-2.62-2.72-.61-1.07-.91-2.37-.91-3.87-.03-1.99.43-3.67,1.37-5.03.95-1.36,2.23-2.41,3.85-3.13,1.62-.72,3.41-1.08,5.37-1.08s3.78.36,5.37,1.08c1.59.72,2.86,1.78,3.83,3.18s1.46,3.09,1.49,5.08h-4.24c0-1.7-.61-3.1-1.83-4.21-1.22-1.11-2.81-1.66-4.76-1.66-1.73-.06-3.21.37-4.43,1.3-1.22.93-1.83,2.3-1.83,4.09,0,1.19.25,2.13.75,2.82s1.36,1.29,2.58,1.8c1.22.51,2.9,1.14,5.05,1.88,1.54.51,2.92,1.05,4.14,1.61,1.22.56,2.25,1.22,3.08,1.97.83.76,1.48,1.65,1.93,2.7.45,1.04.67,2.32.67,3.83,0,2.02-.52,3.73-1.56,5.13-1.04,1.4-2.42,2.45-4.14,3.18-1.72.72-3.6,1.08-5.66,1.08Z"></path>
          </g>
        </g>
      </g>
      <g>
        <path class="cls-3" d="M4.83,338.63v-15.67h1.88l8.35,12.56v-12.56h1.88v15.67h-1.88l-8.35-12.56v12.56h-1.88Z"></path>
        <path class="cls-3" d="M22.5,338.63v-15.67h9.69v1.54h-7.81v5.08h6.83v1.52h-6.83v5.98h7.81v1.54h-9.69Z"></path>
        <path class="cls-3" d="M41.04,338.63v-14.13h-4.68v-1.54h11.24v1.54h-4.68v14.13h-1.88Z"></path>
        <path class="cls-3" d="M55.81,338.63v-14.13h-4.68v-1.54h11.24v1.54h-4.68v14.13h-1.88Z"></path>
        <path class="cls-3" d="M73.26,338.89c-1.19,0-2.27-.21-3.22-.62-.96-.41-1.77-.98-2.44-1.71-.67-.73-1.18-1.59-1.53-2.58-.35-.99-.53-2.05-.53-3.2s.18-2.22.53-3.2c.35-.99.86-1.84,1.53-2.58.67-.73,1.48-1.3,2.43-1.71.95-.41,2.03-.62,3.24-.62s2.26.2,3.21.59c.95.4,1.76.96,2.43,1.68.67.72,1.19,1.58,1.54,2.58.36.99.54,2.08.54,3.26s-.18,2.26-.54,3.26c-.36.99-.87,1.85-1.54,2.58-.67.72-1.48,1.28-2.43,1.68-.95.39-2.02.59-3.21.59ZM73.26,337.24c1.22,0,2.27-.28,3.13-.83.87-.55,1.53-1.31,1.98-2.28.46-.97.68-2.08.68-3.34s-.23-2.41-.68-3.37c-.46-.96-1.12-1.71-1.98-2.25s-1.91-.81-3.13-.81-2.25.28-3.11.83c-.87.55-1.53,1.31-1.99,2.27-.46.96-.69,2.07-.69,3.33s.23,2.35.69,3.32c.46.98,1.13,1.74,1.99,2.29.87.55,1.9.83,3.11.83Z"></path>
        <path class="cls-3" d="M88.73,338.63v-5.96l-5.1-9.72h2.13l3.92,7.93,3.92-7.93h2.1l-5.08,9.72v5.96h-1.88Z"></path>
        <path class="cls-3" d="M97.48,338.63l5.78-15.67h1.99l5.75,15.67h-1.99l-1.43-4.03h-6.67l-1.46,4.03h-1.97ZM101.47,333.07h5.55l-2.78-7.75-2.78,7.75Z"></path>
        <path class="cls-3" d="M121.42,338.89c-1.49,0-2.79-.35-3.88-1.04-1.1-.69-1.95-1.65-2.55-2.87-.6-1.22-.91-2.61-.91-4.18s.3-2.94.9-4.16,1.46-2.19,2.6-2.9,2.51-1.06,4.12-1.06c1.76,0,3.23.43,4.4,1.28,1.17.85,1.93,2.02,2.27,3.51h-2.17c-.21-.94-.71-1.69-1.49-2.24-.78-.55-1.79-.83-3.01-.83s-2.28.28-3.13.85-1.49,1.33-1.91,2.29c-.43.96-.64,2.05-.64,3.26s.22,2.32.65,3.29c.43.97,1.06,1.73,1.88,2.28.82.55,1.81.83,2.96.83,1.67,0,2.93-.49,3.78-1.47.85-.98,1.34-2.32,1.46-4.02h-5.64v-1.48h7.57v8.37h-1.72l-.16-2.58c-.57.91-1.26,1.61-2.08,2.11-.82.49-1.91.74-3.27.74Z"></path>
        <path class="cls-3" d="M133.86,338.63v-15.67h9.69v1.54h-7.81v5.08h6.83v1.52h-6.83v5.98h7.81v1.54h-9.69Z"></path>
        <path class="cls-3" d="M156.9,338.63v-15.67h5.17c1.1,0,2.05.16,2.84.49.79.33,1.4.82,1.84,1.48.43.66.65,1.48.65,2.46s-.23,1.85-.68,2.51c-.46.66-1.08,1.14-1.88,1.46-.8.31-1.72.47-2.77.47h-3.29v6.81h-1.88ZM158.78,330.23h3.25c1.25,0,2.14-.24,2.66-.73.52-.48.78-1.19.78-2.12s-.26-1.65-.78-2.14c-.52-.48-1.41-.73-2.66-.73h-3.25v5.71Z"></path>
        <path class="cls-3" d="M172.11,338.63v-15.67h4.63c1.1,0,2.04.16,2.82.48.78.32,1.37.8,1.79,1.44.42.64.63,1.46.63,2.44,0,1.22-.32,2.15-.95,2.78-.63.63-1.5,1.04-2.59,1.23l4.5,7.3h-2.33l-4.03-6.94h-2.6v6.94h-1.88ZM173.99,330.1h2.71c.84,0,1.5-.1,1.99-.3.49-.2.84-.51,1.05-.93.21-.42.31-.93.31-1.54s-.1-1.15-.31-1.57c-.21-.42-.56-.73-1.05-.93-.49-.2-1.16-.3-1.99-.3h-2.71v5.58Z"></path>
        <path class="cls-3" d="M194.29,338.89c-1.19,0-2.27-.21-3.22-.62-.96-.41-1.77-.98-2.44-1.71-.67-.73-1.18-1.59-1.53-2.58-.35-.99-.53-2.05-.53-3.2s.18-2.22.53-3.2c.35-.99.86-1.84,1.53-2.58.67-.73,1.48-1.3,2.43-1.71.95-.41,2.03-.62,3.24-.62s2.26.2,3.21.59c.95.4,1.76.96,2.43,1.68.67.72,1.19,1.58,1.54,2.58.36.99.54,2.08.54,3.26s-.18,2.26-.54,3.26c-.36.99-.87,1.85-1.54,2.58-.67.72-1.48,1.28-2.43,1.68-.95.39-2.02.59-3.21.59ZM194.29,337.24c1.22,0,2.27-.28,3.13-.83.87-.55,1.53-1.31,1.98-2.28.46-.97.68-2.08.68-3.34s-.23-2.41-.68-3.37c-.46-.96-1.12-1.71-1.98-2.25s-1.91-.81-3.13-.81-2.25.28-3.11.83c-.87.55-1.53,1.31-1.99,2.27-.46.96-.69,2.07-.69,3.33s.23,2.35.69,3.32c.46.98,1.13,1.74,1.99,2.29.87.55,1.9.83,3.11.83Z"></path>
        <path class="cls-3" d="M206.97,338.63v-15.67h9.54v1.54h-7.66v5.28h6.52v1.52h-6.52v7.32h-1.88Z"></path>
        <path class="cls-3" d="M221.16,338.63v-15.67h9.69v1.54h-7.81v5.08h6.83v1.52h-6.83v5.98h7.81v1.54h-9.69Z"></path>
        <path class="cls-3" d="M241.02,338.89c-1.06,0-2.02-.19-2.88-.58s-1.54-.95-2.04-1.69c-.5-.74-.75-1.64-.75-2.7h1.97c0,1.04.34,1.87,1.03,2.47s1.57.91,2.66.91c.96,0,1.75-.23,2.38-.69.63-.46.95-1.12.95-1.97,0-.58-.1-1.05-.3-1.4s-.5-.64-.91-.87c-.4-.23-.91-.45-1.52-.66-.61-.21-1.34-.46-2.17-.74-.75-.27-1.38-.57-1.91-.92s-.94-.76-1.22-1.26-.43-1.1-.43-1.8c-.02-.93.2-1.71.64-2.34.44-.63,1.04-1.12,1.79-1.46s1.59-.5,2.5-.5,1.76.17,2.5.5,1.33.83,1.78,1.48.68,1.44.69,2.36h-1.97c0-.79-.28-1.44-.85-1.96-.57-.52-1.31-.77-2.22-.77-.81-.03-1.49.17-2.06.6-.57.43-.85,1.07-.85,1.9,0,.55.12.99.35,1.31s.63.6,1.2.84c.57.24,1.35.53,2.35.87.72.24,1.36.49,1.93.75.57.26,1.04.57,1.43.92s.69.77.9,1.25.31,1.08.31,1.78c0,.94-.24,1.74-.73,2.38-.49.65-1.13,1.14-1.93,1.48-.8.34-1.68.5-2.63.5Z"></path>
        <path class="cls-3" d="M256.2,338.89c-1.06,0-2.02-.19-2.88-.58s-1.54-.95-2.04-1.69c-.5-.74-.75-1.64-.75-2.7h1.97c0,1.04.34,1.87,1.03,2.47s1.57.91,2.66.91c.96,0,1.75-.23,2.38-.69.63-.46.95-1.12.95-1.97,0-.58-.1-1.05-.3-1.4s-.5-.64-.91-.87c-.4-.23-.91-.45-1.52-.66-.61-.21-1.34-.46-2.17-.74-.75-.27-1.38-.57-1.91-.92s-.94-.76-1.22-1.26-.43-1.1-.43-1.8c-.02-.93.2-1.71.64-2.34.44-.63,1.04-1.12,1.79-1.46s1.59-.5,2.5-.5,1.76.17,2.5.5,1.33.83,1.78,1.48.68,1.44.69,2.36h-1.97c0-.79-.28-1.44-.85-1.96-.57-.52-1.31-.77-2.22-.77-.81-.03-1.49.17-2.06.6-.57.43-.85,1.07-.85,1.9,0,.55.12.99.35,1.31s.63.6,1.2.84c.57.24,1.35.53,2.35.87.72.24,1.36.49,1.93.75.57.26,1.04.57,1.43.92s.69.77.9,1.25.31,1.08.31,1.78c0,.94-.24,1.74-.73,2.38-.49.65-1.13,1.14-1.93,1.48-.8.34-1.68.5-2.63.5Z"></path>
        <path class="cls-3" d="M266.39,338.63v-15.67h1.88v15.67h-1.88Z"></path>
        <path class="cls-3" d="M280.94,338.89c-1.19,0-2.27-.21-3.22-.62-.96-.41-1.77-.98-2.44-1.71-.67-.73-1.18-1.59-1.53-2.58-.35-.99-.53-2.05-.53-3.2s.18-2.22.53-3.2c.35-.99.86-1.84,1.53-2.58.67-.73,1.48-1.3,2.43-1.71.95-.41,2.03-.62,3.24-.62s2.26.2,3.21.59c.95.4,1.76.96,2.43,1.68.67.72,1.19,1.58,1.54,2.58.36.99.54,2.08.54,3.26s-.18,2.26-.54,3.26c-.36.99-.87,1.85-1.54,2.58-.67.72-1.48,1.28-2.43,1.68-.95.39-2.02.59-3.21.59ZM280.94,337.24c1.22,0,2.27-.28,3.13-.83.87-.55,1.53-1.31,1.98-2.28.46-.97.68-2.08.68-3.34s-.23-2.41-.68-3.37c-.46-.96-1.12-1.71-1.98-2.25s-1.91-.81-3.13-.81-2.25.28-3.11.83c-.87.55-1.53,1.31-1.99,2.27-.46.96-.69,2.07-.69,3.33s.23,2.35.69,3.32c.46.98,1.13,1.74,1.99,2.29.87.55,1.9.83,3.11.83Z"></path>
        <path class="cls-3" d="M293.61,338.63v-15.67h1.88l8.35,12.56v-12.56h1.88v15.67h-1.88l-8.35-12.56v12.56h-1.88Z"></path>
        <path class="cls-3" d="M311.28,338.63v-15.67h1.88l8.35,12.56v-12.56h1.88v15.67h-1.88l-8.35-12.56v12.56h-1.88Z"></path>
        <path class="cls-3" d="M328.95,338.63v-15.67h9.69v1.54h-7.81v5.08h6.83v1.52h-6.83v5.98h7.81v1.54h-9.69Z"></path>
        <path class="cls-3" d="M343.81,338.63v-15.67h1.88v14.17h7.3v1.5h-9.18Z"></path>
        <path class="cls-3" d="M365.98,338.63v-15.67h5.17c1.1,0,2.05.16,2.84.49.79.33,1.4.82,1.84,1.48.43.66.65,1.48.65,2.46s-.23,1.85-.68,2.51c-.46.66-1.08,1.14-1.88,1.46s-1.72.47-2.76.47h-3.29v6.81h-1.88ZM367.86,330.23h3.25c1.25,0,2.14-.24,2.66-.73.52-.48.78-1.19.78-2.12s-.26-1.65-.78-2.14c-.52-.48-1.41-.73-2.66-.73h-3.25v5.71Z"></path>
        <path class="cls-3" d="M388.3,338.89c-1.19,0-2.27-.21-3.22-.62-.96-.41-1.77-.98-2.44-1.71s-1.18-1.59-1.53-2.58-.53-2.05-.53-3.2.17-2.22.53-3.2.86-1.84,1.53-2.58c.67-.73,1.48-1.3,2.43-1.71.95-.41,2.03-.62,3.24-.62s2.27.2,3.21.59c.95.4,1.76.96,2.43,1.68.67.72,1.19,1.58,1.54,2.58.36.99.54,2.08.54,3.26s-.18,2.26-.54,3.26c-.36.99-.87,1.85-1.54,2.58-.67.72-1.48,1.28-2.43,1.68-.95.39-2.02.59-3.21.59ZM388.3,337.24c1.22,0,2.27-.28,3.13-.83.87-.55,1.53-1.31,1.98-2.28.46-.97.68-2.08.68-3.34s-.23-2.41-.68-3.37-1.12-1.71-1.98-2.25-1.91-.81-3.13-.81-2.25.28-3.11.83c-.87.55-1.53,1.31-1.99,2.27s-.69,2.07-.69,3.33.23,2.35.69,3.32,1.13,1.74,1.99,2.29c.87.55,1.9.83,3.11.83Z"></path>
        <path class="cls-3" d="M406.64,338.89c-1.37,0-2.49-.28-3.34-.84-.85-.56-1.47-1.3-1.87-2.22-.4-.92-.59-1.92-.59-2.99v-9.9h1.88v9.92c0,1.52.37,2.63,1.1,3.31s1.69,1.03,2.87,1.03,2.13-.34,2.84-1.03c.72-.69,1.07-1.79,1.07-3.31v-9.92h1.88v9.9c0,1.15-.17,2.11-.51,2.89-.34.78-.8,1.4-1.38,1.86-.58.46-1.21.79-1.89,1-.69.2-1.37.3-2.06.3Z"></path>
        <path class="cls-3" d="M417.9,338.63v-15.67h4.63c1.1,0,2.04.16,2.82.48s1.37.8,1.79,1.44c.42.64.63,1.46.63,2.44,0,1.22-.32,2.15-.95,2.78s-1.5,1.04-2.59,1.23l4.5,7.3h-2.33l-4.03-6.94h-2.6v6.94h-1.88ZM419.78,330.1h2.71c.83,0,1.5-.1,1.99-.3.49-.2.84-.51,1.05-.93s.31-.93.31-1.54-.1-1.15-.31-1.57-.56-.73-1.05-.93c-.49-.2-1.16-.3-1.99-.3h-2.71v5.58Z"></path>
        <path class="cls-3" d="M441.59,338.63v-15.67h9.69v1.54h-7.81v5.08h6.83v1.52h-6.83v5.98h7.81v1.54h-9.69Z"></path>
        <path class="cls-3" d="M461.45,338.89c-1.06,0-2.02-.19-2.88-.58s-1.54-.95-2.04-1.69-.75-1.64-.75-2.7h1.97c0,1.04.34,1.87,1.03,2.47s1.57.91,2.66.91c.96,0,1.75-.23,2.38-.69s.95-1.12.95-1.97c0-.58-.1-1.05-.3-1.4s-.5-.64-.91-.87c-.4-.23-.91-.45-1.52-.66s-1.34-.46-2.17-.74c-.75-.27-1.38-.57-1.91-.92s-.94-.76-1.22-1.26c-.28-.5-.43-1.1-.43-1.8-.01-.93.2-1.71.64-2.34.44-.63,1.04-1.12,1.79-1.46.75-.34,1.59-.5,2.5-.5s1.76.17,2.5.5c.74.34,1.33.83,1.78,1.48.45.65.68,1.44.69,2.36h-1.97c0-.79-.28-1.44-.85-1.96-.57-.52-1.31-.77-2.22-.77-.81-.03-1.49.17-2.06.6s-.85,1.07-.85,1.9c0,.55.12.99.35,1.31s.63.6,1.2.84c.57.24,1.35.53,2.35.87.72.24,1.36.49,1.93.75.57.26,1.04.57,1.43.92.39.35.69.77.9,1.25s.31,1.08.31,1.78c0,.94-.24,1.74-.73,2.38s-1.13,1.14-1.93,1.48-1.68.5-2.63.5Z"></path>
        <path class="cls-3" d="M471.63,338.63v-15.67h5.17c1.1,0,2.05.16,2.84.49.79.33,1.4.82,1.84,1.48.43.66.65,1.48.65,2.46s-.23,1.85-.68,2.51c-.46.66-1.08,1.14-1.88,1.46s-1.72.47-2.76.47h-3.29v6.81h-1.88ZM473.51,330.23h3.25c1.25,0,2.14-.24,2.66-.73.52-.48.78-1.19.78-2.12s-.26-1.65-.78-2.14c-.52-.48-1.41-.73-2.66-.73h-3.25v5.71Z"></path>
        <path class="cls-3" d="M483.88,338.63l5.78-15.67h1.99l5.75,15.67h-1.99l-1.43-4.03h-6.67l-1.46,4.03h-1.97ZM487.87,333.07h5.55l-2.78-7.75-2.78,7.75Z"></path>
        <path class="cls-3" d="M507.95,338.89c-1.58,0-2.93-.35-4.05-1.06-1.12-.71-1.97-1.68-2.55-2.9s-.87-2.6-.87-4.14.29-2.9.86-4.12,1.42-2.19,2.54-2.91c1.12-.72,2.48-1.07,4.08-1.07,1.79,0,3.25.43,4.38,1.29s1.85,2.06,2.16,3.59h-2.08c-.24-.97-.73-1.75-1.47-2.34s-1.74-.88-2.99-.88-2.27.29-3.09.86c-.82.58-1.44,1.35-1.85,2.32-.41.97-.62,2.06-.62,3.27s.21,2.34.64,3.31c.42.97,1.05,1.74,1.87,2.29s1.84.84,3.04.84,2.25-.29,2.99-.86,1.23-1.34,1.47-2.29h2.08c-.31,1.51-1.03,2.69-2.16,3.54-1.13.85-2.59,1.28-4.38,1.28Z"></path>
        <path class="cls-3" d="M519.44,338.63v-15.67h9.69v1.54h-7.81v5.08h6.83v1.52h-6.83v5.98h7.81v1.54h-9.69Z"></path>
        <path class="cls-3" d="M539.29,338.89c-1.06,0-2.02-.19-2.88-.58s-1.54-.95-2.04-1.69-.75-1.64-.75-2.7h1.97c0,1.04.34,1.87,1.03,2.47s1.57.91,2.66.91c.96,0,1.75-.23,2.38-.69s.95-1.12.95-1.97c0-.58-.1-1.05-.3-1.4s-.5-.64-.91-.87c-.4-.23-.91-.45-1.52-.66s-1.34-.46-2.17-.74c-.75-.27-1.38-.57-1.91-.92s-.94-.76-1.22-1.26c-.28-.5-.43-1.1-.43-1.8-.01-.93.2-1.71.64-2.34.44-.63,1.04-1.12,1.79-1.46.75-.34,1.59-.5,2.5-.5s1.76.17,2.5.5c.74.34,1.33.83,1.78,1.48.45.65.68,1.44.69,2.36h-1.97c0-.79-.28-1.44-.85-1.96-.57-.52-1.31-.77-2.22-.77-.81-.03-1.49.17-2.06.6s-.85,1.07-.85,1.9c0,.55.12.99.35,1.31s.63.6,1.2.84c.57.24,1.35.53,2.35.87.72.24,1.36.49,1.93.75.57.26,1.04.57,1.43.92.39.35.69.77.9,1.25s.31,1.08.31,1.78c0,.94-.24,1.74-.73,2.38s-1.13,1.14-1.93,1.48-1.68.5-2.63.5Z"></path>
        <path class="cls-3" d="M557.65,338.63v-15.67h9.69v1.54h-7.81v5.08h6.83v1.52h-6.83v5.98h7.81v1.54h-9.69Z"></path>
        <path class="cls-3" d="M571.56,338.63l4.95-8.42-4.34-7.25h2.1l3.34,5.58,3.16-5.58h2.13l-4.28,7.23,5.04,8.44h-2.1l-4.03-6.72-3.81,6.72h-2.15Z"></path>
        <path class="cls-3" d="M588.24,338.63v-15.67h1.88v15.67h-1.88Z"></path>
        <path class="cls-3" d="M602.41,338.89c-1.49,0-2.79-.35-3.88-1.04-1.1-.69-1.95-1.65-2.55-2.87-.6-1.22-.91-2.61-.91-4.18s.3-2.94.9-4.16c.6-1.22,1.46-2.19,2.6-2.9s2.51-1.06,4.12-1.06c1.76,0,3.23.43,4.4,1.28s1.93,2.02,2.27,3.51h-2.17c-.21-.94-.71-1.69-1.49-2.24-.78-.55-1.79-.83-3.01-.83s-2.28.28-3.13.85-1.49,1.33-1.91,2.29c-.43.96-.64,2.05-.64,3.26s.22,2.32.65,3.29c.43.97,1.06,1.73,1.88,2.28.82.55,1.81.83,2.96.83,1.67,0,2.93-.49,3.78-1.47s1.34-2.32,1.46-4.02h-5.64v-1.48h7.57v8.37h-1.72l-.16-2.58c-.57.91-1.26,1.61-2.08,2.11-.82.49-1.91.74-3.27.74Z"></path>
        <path class="cls-3" d="M614.86,338.63v-15.67h9.69v1.54h-7.81v5.08h6.83v1.52h-6.83v5.98h7.81v1.54h-9.69Z"></path>
        <path class="cls-3" d="M628.74,338.63l5.78-15.67h1.99l5.75,15.67h-1.99l-1.43-4.03h-6.67l-1.46,4.03h-1.97ZM632.73,333.07h5.55l-2.78-7.75-2.78,7.75Z"></path>
        <path class="cls-3" d="M646.83,338.63v-15.67h1.88l8.35,12.56v-12.56h1.88v15.67h-1.88l-8.35-12.56v12.56h-1.88Z"></path>
        <path class="cls-3" d="M668.17,338.63v-14.13h-4.68v-1.54h11.24v1.54h-4.68v14.13h-1.88Z"></path>
        <path class="cls-3" d="M683.93,338.89c-1.06,0-2.02-.19-2.88-.58s-1.54-.95-2.04-1.69-.75-1.64-.75-2.7h1.97c0,1.04.34,1.87,1.03,2.47s1.57.91,2.66.91c.96,0,1.75-.23,2.38-.69s.95-1.12.95-1.97c0-.58-.1-1.05-.3-1.4s-.5-.64-.91-.87c-.4-.23-.91-.45-1.52-.66s-1.34-.46-2.17-.74c-.75-.27-1.38-.57-1.91-.92s-.94-.76-1.22-1.26c-.28-.5-.43-1.1-.43-1.8-.01-.93.2-1.71.64-2.34.44-.63,1.04-1.12,1.79-1.46.75-.34,1.59-.5,2.5-.5s1.76.17,2.5.5c.74.34,1.33.83,1.78,1.48.45.65.68,1.44.69,2.36h-1.97c0-.79-.28-1.44-.85-1.96-.57-.52-1.31-.77-2.22-.77-.81-.03-1.49.17-2.06.6s-.85,1.07-.85,1.9c0,.55.12.99.35,1.31s.63.6,1.2.84c.57.24,1.35.53,2.35.87.72.24,1.36.49,1.93.75.57.26,1.04.57,1.43.92.39.35.69.77.9,1.25s.31,1.08.31,1.78c0,.94-.24,1.74-.73,2.38s-1.13,1.14-1.93,1.48-1.68.5-2.63.5Z"></path>
      </g>
      <g>
        <path class="cls-2" d="M346.94,301.93c-1.95-8.77-4.15-12.44-12.86-14.29,8.7-2.12,11.15-6.07,12.91-14.43,1.48,8.23,4.18,12.43,12.98,14.45-8.57,1.76-11.14,5.63-13.03,14.27Z"></path>
        <path class="cls-3" d="M327.45,288.14H4.83c-.28,0-.5-.22-.5-.5s.22-.5.5-.5h322.62c.28,0,.5.22.5.5s-.22.5-.5.5Z"></path>
        <path class="cls-3" d="M691.03,288.14h-322.62c-.28,0-.5-.22-.5-.5s.22-.5.5-.5h322.62c.28,0,.5.22.5.5s-.22.5-.5.5Z"></path>
      </g>
    </g>
  </g>
</svg>